<?xml version="1.0" encoding="utf-8"?>
<!-- Generator: Adobe Illustrator 25.2.1, SVG Export Plug-In . SVG Version: 6.00 Build 0)  -->
<svg version="1.1" id="Camada_1" xmlns="http://www.w3.org/2000/svg" xmlns:xlink="http://www.w3.org/1999/xlink" x="0px" y="0px"
	 viewBox="0 0 539 198" style="enable-background:new 0 0 539 198;" xml:space="preserve">
<style type="text/css">
	.st0{fill:#65A844;}
	.st1{fill:#A76645;}
</style>
<g>
	<path class="st0" d="M278.04,88.1l-13.89-44.6h14.15l7.29,25.56l8.4-25.56h10.89l8.32,25.56l7.38-25.56h13.72l-13.89,44.6h-13.04
		l-7.97-22.47l-7.89,22.47H278.04z"/>
	<path class="st0" d="M358.66,89.3c-3.37,0-6.46-0.57-9.26-1.72c-2.8-1.14-5.22-2.73-7.25-4.76c-2.03-2.03-3.6-4.5-4.72-7.42
		c-1.11-2.92-1.67-6.12-1.67-9.61c0-3.43,0.54-6.59,1.63-9.48c1.09-2.89,2.6-5.36,4.54-7.42c1.94-2.06,4.3-3.67,7.08-4.85
		c2.77-1.17,5.84-1.76,9.22-1.76c3.43,0,6.52,0.59,9.26,1.76c2.74,1.17,5.06,2.77,6.95,4.8c1.89,2.03,3.33,4.42,4.33,7.16
		c1,2.74,1.5,5.66,1.5,8.75c0,1.09-0.04,2.14-0.13,3.17c-0.08,1.03-0.19,1.92-0.3,2.66h-30.7c0.51,2.34,1.64,4.15,3.39,5.4
		c1.74,1.26,4.02,1.86,6.82,1.8c2.06,0,3.93-0.47,5.62-1.42c1.69-0.94,3.13-2.33,4.33-4.16l9.95,5.23
		c-2.06,3.77-4.82,6.69-8.28,8.75C367.5,88.27,363.4,89.3,358.66,89.3z M358.23,53.2c-2.29,0-4.23,0.61-5.83,1.84
		c-1.6,1.23-2.66,2.99-3.17,5.27h17.92c-0.4-2.29-1.39-4.04-2.96-5.27C362.61,53.81,360.63,53.2,358.23,53.2z"/>
	<path class="st0" d="M412.86,42.31c3.09,0,5.94,0.59,8.58,1.76c2.63,1.17,4.89,2.8,6.78,4.89c1.89,2.09,3.37,4.58,4.46,7.46
		c1.09,2.89,1.63,6.02,1.63,9.39c0,3.37-0.53,6.5-1.59,9.39c-1.06,2.89-2.53,5.37-4.42,7.46c-1.89,2.09-4.15,3.72-6.78,4.89
		s-5.49,1.76-8.58,1.76c-2.8,0-5.39-0.53-7.76-1.59c-2.37-1.06-4.42-2.53-6.13-4.42l-1.29,4.8h-10.89V25.92h14.15v20.07
		c1.6-1.2,3.4-2.11,5.4-2.74C408.43,42.62,410.57,42.31,412.86,42.31z M410.54,55c-2.86,0-5.16,1.03-6.9,3.09
		c-1.74,2.06-2.62,4.63-2.62,7.72c0,3.09,0.87,5.66,2.62,7.72c1.74,2.06,4.05,3.09,6.9,3.09c2.74,0,5-1.03,6.78-3.09
		c1.77-2.06,2.66-4.63,2.66-7.72c0-3.09-0.89-5.66-2.66-7.72C415.54,56.03,413.29,55,410.54,55z"/>
	<path class="st0" d="M271.25,169.62v-31.13h-6.52v-12.69h6.52v-4.03c0-5.15,1.47-9.26,4.42-12.35c2.94-3.09,6.9-4.63,11.88-4.63
		c1.6,0,3.03,0.1,4.29,0.3c1.25,0.2,2.14,0.39,2.66,0.56v12.52c-0.4-0.11-0.92-0.23-1.54-0.34c-0.63-0.11-1.37-0.17-2.23-0.17
		c-2,0-3.39,0.59-4.16,1.76c-0.78,1.17-1.16,2.9-1.16,5.19v1.2h8.58v12.69h-8.58v31.13H271.25z"/>
	<path class="st0" d="M321.14,123.82c3.49,0,6.69,0.59,9.61,1.76c2.91,1.17,5.4,2.8,7.46,4.89c2.06,2.09,3.66,4.58,4.8,7.46
		c1.14,2.89,1.71,6.02,1.71,9.39c0,3.37-0.57,6.5-1.71,9.39c-1.14,2.89-2.74,5.37-4.8,7.46c-2.06,2.09-4.55,3.72-7.46,4.89
		c-2.92,1.17-6.12,1.76-9.61,1.76c-3.49,0-6.68-0.59-9.56-1.76c-2.89-1.17-5.36-2.8-7.42-4.89c-2.06-2.09-3.66-4.57-4.8-7.46
		c-1.14-2.89-1.71-6.02-1.71-9.39c0-3.37,0.57-6.5,1.71-9.39c1.14-2.89,2.74-5.37,4.8-7.46c2.06-2.09,4.53-3.72,7.42-4.89
		C314.46,124.41,317.65,123.82,321.14,123.82z M321.14,157.53c2.8,0,5.05-0.96,6.73-2.87c1.68-1.92,2.53-4.39,2.53-7.42
		c0-2.97-0.85-5.4-2.53-7.29c-1.69-1.89-3.93-2.83-6.73-2.83c-2.74,0-4.96,0.94-6.65,2.83c-1.69,1.89-2.53,4.32-2.53,7.29
		c0,3.03,0.84,5.5,2.53,7.42C316.18,156.57,318.39,157.53,321.14,157.53z"/>
	<path class="st0" d="M362.47,125.02l1.11,4.29c1.43-1.31,3.22-2.56,5.36-3.73c2.14-1.17,4.3-1.76,6.47-1.76
		c0.91,0,1.77,0.07,2.57,0.21c0.8,0.14,1.43,0.36,1.89,0.64v12.86h-2.92c-2.46,0-4.63,0.23-6.52,0.69
		c-1.89,0.46-3.46,1.17-4.72,2.14v29.24h-14.15v-44.6H362.47z"/>
	<path class="st0" d="M405.78,170.82c-3.37,0-6.46-0.57-9.26-1.72c-2.8-1.14-5.22-2.73-7.25-4.76c-2.03-2.03-3.6-4.5-4.72-7.42
		c-1.11-2.92-1.67-6.12-1.67-9.61c0-3.43,0.54-6.59,1.63-9.48c1.09-2.89,2.6-5.36,4.54-7.42c1.94-2.06,4.3-3.67,7.08-4.85
		c2.77-1.17,5.84-1.76,9.22-1.76c3.43,0,6.52,0.59,9.26,1.76c2.74,1.17,5.06,2.77,6.95,4.8c1.89,2.03,3.33,4.42,4.33,7.16
		c1,2.74,1.5,5.66,1.5,8.75c0,1.09-0.04,2.14-0.13,3.17c-0.08,1.03-0.19,1.92-0.3,2.66h-30.7c0.51,2.34,1.64,4.15,3.39,5.4
		c1.74,1.26,4.02,1.86,6.82,1.8c2.06,0,3.93-0.47,5.62-1.42c1.69-0.94,3.13-2.33,4.33-4.16l9.95,5.23
		c-2.06,3.77-4.82,6.69-8.28,8.75C414.63,169.79,410.53,170.82,405.78,170.82z M405.35,134.71c-2.29,0-4.23,0.61-5.83,1.84
		c-1.6,1.23-2.66,2.99-3.17,5.27h17.92c-0.4-2.29-1.39-4.04-2.96-5.27C409.74,135.33,407.76,134.71,405.35,134.71z"/>
	<path class="st0" d="M432.89,138.31c0-2,0.41-3.9,1.24-5.7c0.83-1.8,2.02-3.37,3.56-4.72c1.54-1.34,3.42-2.41,5.62-3.22
		c2.2-0.8,4.7-1.2,7.5-1.2c4.12,0,7.65,0.8,10.59,2.4c2.95,1.6,5.36,3.52,7.25,5.75l-8.15,7.55c-1.26-1.2-2.79-2.21-4.59-3.04
		c-1.8-0.83-3.81-1.24-6.05-1.24c-1.43,0-2.57,0.24-3.43,0.73c-0.86,0.49-1.29,1.19-1.29,2.1c0,0.86,0.47,1.59,1.41,2.19
		c0.95,0.6,2.82,1.19,5.62,1.76c5.55,1.2,9.66,2.94,12.35,5.23c2.69,2.29,4.03,5.49,4.03,9.61c0,4.29-1.69,7.79-5.06,10.5
		c-3.37,2.72-7.72,4.07-13.04,4.07c-3.77,0-7.16-0.76-10.16-2.27c-3-1.51-5.82-3.9-8.45-7.16l7.63-7.63
		c2.17,2.29,4.22,3.85,6.13,4.67s3.93,1.24,6.05,1.24c1.14,0,2.13-0.26,2.96-0.77c0.83-0.51,1.24-1.2,1.24-2.06
		c0-0.97-0.67-1.8-2.02-2.49c-1.34-0.69-3.96-1.46-7.85-2.32c-4.46-0.91-7.76-2.54-9.91-4.89
		C433.96,145.06,432.89,142.03,432.89,138.31z"/>
	<path class="st0" d="M504.32,156.41v12.86c-1.09,0.34-2.26,0.61-3.52,0.81c-1.26,0.2-2.63,0.3-4.12,0.3c-5.03,0-9-1.21-11.92-3.64
		c-2.92-2.43-4.37-6.33-4.37-11.71v-17.32h-6.86v-12.69h6.6l2.74-11.15h11.66v11.15h9.78v12.69h-9.78v13.81c0,2,0.47,3.45,1.42,4.33
		c0.94,0.89,2.19,1.33,3.73,1.33c0.91,0,1.77-0.07,2.57-0.21C503.06,156.83,503.75,156.64,504.32,156.41z"/>
	<path class="st1" d="M521.13,170.56c-2.63,0-4.87-0.93-6.73-2.79c-1.86-1.86-2.79-4.1-2.79-6.73c0-2.57,0.93-4.79,2.79-6.65
		c1.86-1.86,4.1-2.79,6.73-2.79s4.87,0.93,6.73,2.79c1.86,1.86,2.79,4.07,2.79,6.65c0,2.63-0.93,4.88-2.79,6.73
		S523.76,170.56,521.13,170.56z"/>
</g>
<g>
	<path class="st0" d="M62.76,96.79"/>
	<polyline class="st0" points="132.35,4.53 93.84,4.53 37.46,162.17 85.05,162.17 112.94,82.74 141.14,162.17 187.13,162.17 	"/>
	<line class="st0" x1="37.25" y1="159.95" x2="37.46" y2="160.62"/>
	<polygon class="st1" points="62.09,192.47 162.59,192.47 112.07,50.14 	"/>
	<polygon class="st0" points="224.46,4.53 166.07,4.53 197.02,99.61 	"/>
	<polygon class="st0" points="62.09,4.53 3.7,4.53 30.82,99.61 	"/>
</g>
</svg>
