<?xml version="1.0" encoding="utf-8"?>
<!-- Generator: Adobe Illustrator 25.2.1, SVG Export Plug-In . SVG Version: 6.00 Build 0)  -->
<svg version="1.1" id="Camada_1" xmlns="http://www.w3.org/2000/svg" xmlns:xlink="http://www.w3.org/1999/xlink" x="0px" y="0px"
	 viewBox="0 0 578.25 187.5" style="enable-background:new 0 0 578.25 187.5;" xml:space="preserve">
<style type="text/css">
	.st0{fill:#65A944;}
	.st1{fill:#A86645;}
</style>
<g>
	<path class="st0" d="M61.69,92.62"/>
	<path class="st0" d="M129.36,2.91H91.92L37.08,156.2h46.28l27.12-77.24l27.42,77.24h44.73"/>
	<path class="st0" d="M36.88,154.04l0.2,0.66"/>
</g>
<g>
	<path class="st0" d="M288.28,68.93v12.51c-1.06,0.33-2.2,0.6-3.42,0.79c-1.22,0.19-2.56,0.29-4,0.29c-4.89,0-8.76-1.18-11.59-3.54
		c-2.84-2.36-4.25-6.16-4.25-11.38V50.75h-6.67V38.4h6.42l2.67-10.84h11.34V38.4h9.51v12.34h-9.51v13.43c0,1.95,0.46,3.35,1.38,4.21
		c0.91,0.86,2.13,1.29,3.63,1.29c0.89,0,1.72-0.07,2.5-0.21C287.06,69.33,287.73,69.15,288.28,68.93z"/>
	<path class="st0" d="M309.55,21.31v19.85c1.78-1.17,3.74-2.11,5.88-2.84c2.14-0.72,4.32-1.08,6.55-1.08c3,0,5.45,0.5,7.34,1.5
		c1.89,1,3.36,2.32,4.42,3.96c1.06,1.64,1.76,3.53,2.13,5.67c0.36,2.14,0.54,4.35,0.54,6.63v26.77h-13.76V56.25
		c0-2.45-0.35-4.07-1.04-4.88c-0.7-0.81-1.85-1.21-3.46-1.21c-1.45,0-2.92,0.33-4.42,1c-1.5,0.67-2.89,1.56-4.17,2.67v27.94h-13.76
		V21.31H309.55z"/>
	<path class="st0" d="M364.67,82.94c-3.28,0-6.28-0.56-9.01-1.67c-2.72-1.11-5.07-2.65-7.05-4.63c-1.97-1.97-3.5-4.38-4.59-7.21
		c-1.08-2.84-1.63-5.95-1.63-9.34c0-3.34,0.53-6.41,1.58-9.21c1.06-2.81,2.53-5.21,4.42-7.21c1.89-2,4.18-3.57,6.88-4.71
		c2.7-1.14,5.68-1.71,8.96-1.71c3.34,0,6.34,0.57,9.01,1.71c2.67,1.14,4.92,2.7,6.76,4.67c1.83,1.97,3.24,4.3,4.21,6.96
		c0.97,2.67,1.46,5.5,1.46,8.51c0,1.06-0.04,2.09-0.13,3.09c-0.08,1-0.18,1.86-0.29,2.59h-29.85c0.5,2.28,1.6,4.03,3.29,5.25
		c1.7,1.22,3.91,1.81,6.63,1.75c2,0,3.82-0.46,5.46-1.38c1.64-0.92,3.04-2.26,4.21-4.04l9.67,5.09c-2,3.67-4.68,6.5-8.05,8.51
		C373.28,81.94,369.29,82.94,364.67,82.94z M364.26,47.83c-2.22,0-4.11,0.6-5.67,1.79c-1.56,1.2-2.59,2.91-3.09,5.13h17.43
		c-0.39-2.22-1.35-3.93-2.88-5.13C368.52,48.43,366.59,47.83,364.26,47.83z"/>
	<path class="st0" d="M423.3,81.77L409.79,38.4h13.76l7.09,24.85l8.17-24.85h10.59l8.09,24.85l7.17-24.85h13.34L464.5,81.77h-12.68
		l-7.75-21.85l-7.67,21.85H423.3z"/>
	<path class="st0" d="M501.69,82.94c-3.28,0-6.28-0.56-9.01-1.67c-2.72-1.11-5.07-2.65-7.05-4.63c-1.97-1.97-3.5-4.38-4.59-7.21
		c-1.08-2.84-1.63-5.95-1.63-9.34c0-3.34,0.53-6.41,1.58-9.21c1.06-2.81,2.53-5.21,4.42-7.21c1.89-2,4.18-3.57,6.88-4.71
		c2.7-1.14,5.68-1.71,8.96-1.71c3.34,0,6.34,0.57,9.01,1.71c2.67,1.14,4.92,2.7,6.76,4.67c1.83,1.97,3.24,4.3,4.21,6.96
		c0.97,2.67,1.46,5.5,1.46,8.51c0,1.06-0.04,2.09-0.13,3.09c-0.08,1-0.18,1.86-0.29,2.59h-29.85c0.5,2.28,1.6,4.03,3.29,5.25
		c1.7,1.22,3.91,1.81,6.63,1.75c2,0,3.82-0.46,5.46-1.38c1.64-0.92,3.04-2.26,4.21-4.04l9.67,5.09c-2,3.67-4.68,6.5-8.05,8.51
		C510.3,81.94,506.31,82.94,501.69,82.94z M501.28,47.83c-2.22,0-4.11,0.6-5.67,1.79c-1.56,1.2-2.59,2.91-3.09,5.13h17.43
		c-0.39-2.22-1.35-3.93-2.88-5.13C505.54,48.43,503.61,47.83,501.28,47.83z"/>
	<path class="st0" d="M554.4,37.24c3,0,5.78,0.57,8.34,1.71c2.56,1.14,4.75,2.72,6.59,4.75c1.83,2.03,3.28,4.45,4.34,7.26
		c1.06,2.81,1.58,5.85,1.58,9.13c0,3.28-0.52,6.33-1.54,9.13c-1.03,2.81-2.46,5.23-4.29,7.26s-4.03,3.61-6.59,4.75
		c-2.56,1.14-5.34,1.71-8.34,1.71c-2.72,0-5.24-0.51-7.55-1.54c-2.31-1.03-4.29-2.46-5.96-4.29l-1.25,4.67h-10.59V21.31h13.76v19.51
		c1.56-1.17,3.31-2.06,5.26-2.67C550.09,37.54,552.18,37.24,554.4,37.24z M552.15,49.58c-2.78,0-5.02,1-6.71,3
		c-1.7,2-2.54,4.5-2.54,7.51c0,3,0.85,5.5,2.54,7.51c1.7,2,3.93,3,6.71,3c2.67,0,4.87-1,6.59-3c1.72-2,2.59-4.5,2.59-7.51
		c0-3-0.86-5.5-2.59-7.51C557.01,50.58,554.82,49.58,552.15,49.58z"/>
	<path class="st0" d="M264.43,161.04v-30.27h-6.34v-12.34h6.34v-3.92c0-5,1.43-9.01,4.29-12.01c2.86-3,6.71-4.5,11.55-4.5
		c1.56,0,2.95,0.1,4.17,0.29c1.22,0.2,2.09,0.38,2.58,0.54V111c-0.39-0.11-0.89-0.22-1.5-0.33c-0.61-0.11-1.34-0.17-2.17-0.17
		c-1.95,0-3.29,0.57-4.04,1.71c-0.75,1.14-1.13,2.82-1.13,5.05v1.17h8.34v12.34h-8.34v30.27H264.43z"/>
	<path class="st0" d="M316.61,116.51c3.39,0,6.51,0.57,9.34,1.71c2.83,1.14,5.25,2.72,7.25,4.75c2,2.03,3.56,4.45,4.67,7.26
		c1.11,2.81,1.67,5.85,1.67,9.13c0,3.28-0.56,6.33-1.67,9.13c-1.11,2.81-2.67,5.23-4.67,7.26c-2,2.03-4.42,3.61-7.25,4.75
		c-2.84,1.14-5.95,1.71-9.34,1.71c-3.39,0-6.49-0.57-9.3-1.71c-2.81-1.14-5.21-2.72-7.21-4.75c-2-2.03-3.56-4.45-4.67-7.26
		c-1.11-2.81-1.67-5.85-1.67-9.13c0-3.28,0.55-6.32,1.67-9.13c1.11-2.81,2.67-5.23,4.67-7.26c2-2.03,4.41-3.61,7.21-4.75
		C310.12,117.08,313.22,116.51,316.61,116.51z M316.61,149.28c2.72,0,4.91-0.93,6.55-2.79c1.64-1.86,2.46-4.27,2.46-7.21
		c0-2.89-0.82-5.25-2.46-7.09c-1.64-1.84-3.82-2.75-6.55-2.75c-2.67,0-4.82,0.92-6.46,2.75c-1.64,1.83-2.46,4.2-2.46,7.09
		c0,2.95,0.82,5.35,2.46,7.21C311.79,148.35,313.94,149.28,316.61,149.28z"/>
	<path class="st0" d="M356.81,117.67l1.08,4.17c1.39-1.28,3.13-2.49,5.21-3.63c2.08-1.14,4.18-1.71,6.3-1.71
		c0.89,0,1.72,0.07,2.5,0.21c0.78,0.14,1.39,0.35,1.83,0.63v12.51h-2.84c-2.39,0-4.5,0.22-6.34,0.67c-1.83,0.45-3.37,1.14-4.59,2.09
		v28.44h-13.76v-43.37H356.81z"/>
	<path class="st0" d="M398.93,162.21c-3.28,0-6.28-0.56-9.01-1.67c-2.72-1.11-5.07-2.65-7.05-4.63c-1.97-1.97-3.5-4.38-4.59-7.21
		c-1.08-2.84-1.63-5.95-1.63-9.34c0-3.34,0.53-6.41,1.58-9.21c1.06-2.81,2.53-5.21,4.42-7.21c1.89-2,4.18-3.57,6.88-4.71
		c2.7-1.14,5.68-1.71,8.96-1.71c3.34,0,6.34,0.57,9.01,1.71c2.67,1.14,4.92,2.7,6.76,4.67c1.83,1.97,3.24,4.3,4.21,6.96
		c0.97,2.67,1.46,5.5,1.46,8.51c0,1.06-0.04,2.09-0.13,3.09c-0.08,1-0.18,1.86-0.29,2.59h-29.85c0.5,2.28,1.6,4.03,3.29,5.25
		c1.7,1.22,3.91,1.81,6.63,1.75c2,0,3.82-0.46,5.46-1.38c1.64-0.92,3.04-2.26,4.21-4.04l9.67,5.09c-2,3.67-4.68,6.5-8.05,8.51
		C407.53,161.21,403.54,162.21,398.93,162.21z M398.51,127.1c-2.22,0-4.11,0.6-5.67,1.79c-1.56,1.2-2.59,2.91-3.09,5.13h17.43
		c-0.39-2.22-1.35-3.93-2.88-5.13C402.78,127.7,400.85,127.1,398.51,127.1z"/>
	<path class="st0" d="M425.28,130.6c0-1.95,0.4-3.79,1.21-5.55c0.81-1.75,1.96-3.28,3.46-4.59c1.5-1.31,3.32-2.35,5.46-3.13
		c2.14-0.78,4.57-1.17,7.3-1.17c4,0,7.44,0.78,10.3,2.33c2.86,1.56,5.21,3.42,7.05,5.59l-7.92,7.34c-1.22-1.17-2.71-2.15-4.46-2.96
		c-1.75-0.8-3.71-1.21-5.88-1.21c-1.39,0-2.5,0.24-3.33,0.71c-0.83,0.47-1.25,1.15-1.25,2.04c0,0.83,0.46,1.54,1.37,2.13
		c0.92,0.58,2.74,1.16,5.46,1.71c5.39,1.17,9.4,2.86,12.01,5.09c2.61,2.22,3.92,5.34,3.92,9.34c0,4.17-1.64,7.58-4.92,10.22
		c-3.28,2.64-7.51,3.96-12.68,3.96c-3.67,0-6.96-0.74-9.88-2.21c-2.92-1.47-5.66-3.79-8.21-6.96l7.42-7.42
		c2.11,2.22,4.1,3.74,5.96,4.55c1.86,0.81,3.82,1.21,5.88,1.21c1.11,0,2.07-0.25,2.88-0.75c0.81-0.5,1.21-1.17,1.21-2
		c0-0.94-0.65-1.75-1.96-2.42c-1.31-0.67-3.85-1.42-7.63-2.25c-4.34-0.89-7.55-2.47-9.63-4.75
		C426.32,137.16,425.28,134.21,425.28,130.6z"/>
	<path class="st0" d="M494.75,148.2v12.51c-1.06,0.33-2.2,0.6-3.42,0.79c-1.22,0.19-2.56,0.29-4,0.29c-4.89,0-8.76-1.18-11.59-3.54
		c-2.84-2.36-4.25-6.16-4.25-11.38v-16.85h-6.67v-12.34h6.42l2.67-10.84h11.34v10.84h9.51v12.34h-9.51v13.43
		c0,1.95,0.46,3.35,1.38,4.21c0.92,0.86,2.13,1.29,3.63,1.29c0.89,0,1.72-0.07,2.5-0.21C493.52,148.6,494.19,148.42,494.75,148.2z"
		/>
	<path class="st1" d="M511.09,161.96c-2.56,0-4.74-0.9-6.55-2.71c-1.81-1.81-2.71-3.99-2.71-6.55c0-2.5,0.9-4.66,2.71-6.46
		c1.81-1.81,3.99-2.71,6.55-2.71c2.56,0,4.74,0.9,6.55,2.71c1.81,1.81,2.71,3.96,2.71,6.46c0,2.56-0.9,4.74-2.71,6.55
		C515.83,161.05,513.65,161.96,511.09,161.96z"/>
</g>
<g>
	<polygon class="st1" points="61.04,185.67 158.77,185.67 109.64,47.27 	"/>
</g>
<g>
	<polygon class="st0" points="218.93,2.91 162.15,2.91 192.25,95.37 	"/>
	<polygon class="st0" points="61.04,2.91 4.25,2.91 30.63,95.37 	"/>
</g>
</svg>
