<?xml version="1.0"?><svg fill="#464646" xmlns="http://www.w3.org/2000/svg"  viewBox="0 0 50 50" width="50px" height="50px">    <path d="M 12 3 C 7.04 3 3 7.04 3 12 L 3 38 C 3 42.96 7.04 47 12 47 L 38 47 C 42.96 47 47 42.96 47 38 L 47 12 C 47 7.04 42.96 3 38 3 L 12 3 z M 38 8 L 41 8 C 41.55 8 42 8.45 42 9 L 42 12 C 42 12.55 41.55 13 41 13 L 38 13 C 37.45 13 37 12.55 37 12 L 37 9 C 37 8.45 37.45 8 38 8 z M 25 10 C 30.33 10 35.019688 12.8 37.679688 17 L 42 17 L 42 37 C 42 39.76 39.76 42 37 42 L 13 42 C 10.24 42 8 39.76 8 37 L 8 17 L 12.320312 17 C 14.980313 12.8 19.67 10 25 10 z M 25 12 C 17.83 12 12 17.83 12 25 C 12 32.17 17.83 38 25 38 C 32.17 38 38 32.17 38 25 C 38 17.83 32.17 12 25 12 z M 25 16 C 29.96 16 34 20.04 34 25 C 34 29.96 29.96 34 25 34 C 20.04 34 16 29.96 16 25 C 16 20.04 20.04 16 25 16 z"/></svg>