<svg width="88" height="80" viewBox="0 0 88 80" fill="none" xmlns="http://www.w3.org/2000/svg">
<g clip-path="url(#clip0_255_3)">
<path d="M16.7826 54.616C16.6702 54.6695 16.5442 54.687 16.4217 54.666C16.2991 54.645 16.1859 54.5865 16.0974 54.4984C16.0089 54.4104 15.9494 54.2971 15.927 54.1738C15.9045 54.0505 15.9202 53.9233 15.9719 53.8093C15.9626 53.7469 15.9559 53.702 15.9466 53.6396C15.9364 53.6294 15.9262 53.6192 15.916 53.6091C14.8877 52.5881 13.1457 53.332 13.149 54.7869C13.152 56.0782 13.0319 57.4236 13.3722 58.647C13.5228 59.1876 13.7653 59.6978 14.089 60.1549C12.0539 58.2625 10.4463 55.9512 9.37509 53.3776C9.10697 52.7315 8.87488 52.0708 8.67993 51.3986C8.52058 50.8473 8.38561 50.2902 8.27502 49.7272C7.6782 46.671 7.8091 43.5157 8.65697 40.5204C9.32167 39.6841 9.71608 38.6626 9.78706 37.5934C9.8138 37.2086 9.78514 36.8218 9.70196 36.4453C9.61016 36.499 9.51475 36.5486 9.42029 36.596C9.3907 36.6103 9.35952 36.6253 9.32993 36.6397L9.31873 36.645C9.21399 36.6948 9.09719 36.713 8.98241 36.6975C8.86763 36.6819 8.75976 36.6332 8.67178 36.5573C8.58381 36.4814 8.51948 36.3815 8.48654 36.2696C8.45359 36.1576 8.45345 36.0385 8.48611 35.9265C8.50648 35.8568 8.52688 35.7872 8.54732 35.7175C8.57775 35.6104 8.61042 35.5043 8.64084 35.3972C8.64503 35.3865 8.64861 35.3755 8.65155 35.3644C8.68688 35.242 8.72285 35.1213 8.75817 34.999C8.53775 34.8461 8.28528 34.7466 8.02044 34.7083C7.10673 34.5842 6.21845 35.3109 5.9657 36.2036C5.71135 37.0969 6.00033 38.0781 6.53172 38.8365C6.98616 39.4859 7.60224 39.9975 8.24803 40.4589C8.22951 40.527 8.20873 40.5942 8.19023 40.6623C7.85358 41.9121 7.63925 43.192 7.55031 44.4839C7.18361 43.2331 6.52754 42.0879 5.63608 41.1425C4.77061 40.2761 3.59687 39.7337 2.50988 39.1274C1.20422 38.3991 -0.351049 39.6121 0.0703507 41.055C0.0744315 41.069 0.0785441 41.083 0.0826895 41.0969C0.213264 41.1125 0.343137 41.1327 0.472305 41.1575C0.634934 41.1896 0.78416 41.2704 0.900433 41.3894C1.01671 41.5084 1.0946 41.6601 1.12391 41.8245C1.15322 41.9889 1.13259 42.1584 1.0647 42.3108C0.996814 42.4631 0.884851 42.5913 0.743474 42.6784L0.728997 42.6874C0.925783 43.0554 1.15004 43.4078 1.39983 43.7415C2.1072 44.6689 2.99703 45.4391 4.01352 46.0036C5.03001 46.5682 6.15125 46.915 7.30693 47.0223C7.38234 47.0282 7.45617 47.0348 7.53092 47.0391C7.62937 48.7901 7.95328 50.5207 8.4945 52.1875C8.81684 53.1695 9.21744 54.1237 9.69238 55.0406L9.67363 55.0089C9.03139 54.0374 8.0762 53.319 6.96935 52.9751C5.33155 52.4791 3.45487 52.833 1.80309 52.5756C1.00797 52.4517 0.405891 53.2982 0.823174 53.9916C0.829833 54.0027 0.836523 54.0138 0.843243 54.0248C1.0727 54.0227 1.30205 54.035 1.52999 54.0617C1.66057 54.0773 1.79044 54.0975 1.9196 54.1223C2.08223 54.1543 2.23146 54.2352 2.34774 54.3542C2.46401 54.4732 2.54191 54.6249 2.57122 54.7893C2.60053 54.9537 2.57989 55.1232 2.512 55.2755C2.44412 55.4279 2.33215 55.5561 2.19078 55.6432L2.17628 55.6521C2.16581 55.6584 2.15691 55.6641 2.14645 55.6704C2.81578 56.3356 3.59371 56.8797 4.44617 57.2789C5.49259 57.756 6.62465 58.0126 7.77296 58.033C8.92126 58.0534 10.0616 57.8372 11.1241 57.3976L11.1256 57.3969C11.9357 58.5357 12.8609 59.5865 13.8864 60.5325L18.3289 58.6611C18.3242 58.6046 18.3173 58.5472 18.311 58.4914C17.9106 58.6907 17.4875 58.8398 17.0511 58.9354C17.2117 58.3889 17.3709 57.8392 17.5315 57.2926C17.5357 57.2819 17.5393 57.271 17.5423 57.2598C17.6229 56.9808 17.7059 56.7026 17.7866 56.4235L17.7866 56.4232C17.5303 55.7799 17.1929 55.1725 16.7828 54.616L16.7826 54.616ZM7.51313 46.6715L7.51415 46.6673L7.51447 46.6747L7.51313 46.6715ZM10.2362 56.0276L10.1621 55.957C10.1377 55.8938 10.1118 55.8312 10.0836 55.7676C10.0762 55.75 10.0657 55.7337 10.0584 55.716C10.1187 55.8207 10.1773 55.9261 10.2392 56.0301L10.2362 56.0276Z" fill="#F2F2F2"/>
<path d="M57.5496 23.8423C57.384 24.5152 57.3051 25.2068 57.3148 25.9L57.3149 25.9002C57.4961 26.1264 57.679 26.3508 57.8602 26.5769C57.8672 26.586 57.8747 26.5947 57.8827 26.603C58.2399 27.0448 58.5971 27.4902 58.9544 27.932C58.5152 28.0134 58.0677 28.0403 57.6221 28.012C57.6376 28.066 57.6531 28.1216 57.6704 28.1755H62.4852C63.0696 26.9041 63.5213 25.5749 63.8331 24.2094H63.8348C64.9832 24.202 66.1181 23.9583 67.1698 23.4932C68.2215 23.028 69.1679 22.3513 69.9509 21.5044C70.5847 20.8047 71.0943 20.0003 71.4574 19.1264C71.4454 19.1247 71.435 19.1229 71.4229 19.1212L71.4062 19.1186C71.2424 19.0931 71.09 19.0184 70.9691 18.9042C70.8482 18.79 70.7643 18.6416 70.7285 18.4786C70.6926 18.3155 70.7065 18.1453 70.7682 17.9903C70.83 17.8353 70.9368 17.7027 71.0746 17.6099C71.1841 17.5368 71.2962 17.4677 71.4109 17.4025C71.611 17.2893 71.8179 17.1888 72.0304 17.1016C72.0324 17.0888 72.0343 17.076 72.0362 17.0632C72.156 16.2612 71.2766 15.7141 70.5904 16.1375C69.1648 17.017 67.2979 17.4199 65.9765 18.5141C65.0868 19.2616 64.4802 20.2957 64.2593 21.4418L64.2541 21.4783C64.3416 20.4477 64.3462 19.4116 64.268 18.3802C64.1297 16.632 63.7666 14.9093 63.1876 13.2555C63.2549 13.2224 63.3205 13.1876 63.3878 13.1528C64.4131 12.6046 65.315 11.8489 66.0369 10.9329C66.7588 10.0169 67.2852 8.96047 67.5831 7.82981C67.6859 7.4248 67.7581 7.0125 67.7988 6.59647L67.7821 6.59386C67.6183 6.56841 67.466 6.49368 67.345 6.37947C67.2241 6.26526 67.1402 6.1169 67.1044 5.95382C67.0686 5.79074 67.0824 5.62054 67.1442 5.46554C67.2059 5.31053 67.3127 5.17795 67.4505 5.08515C67.5601 5.0121 67.6722 4.94298 67.7868 4.87779C67.7853 4.86332 67.7837 4.84885 67.7821 4.83438C67.619 3.33925 65.72 2.82451 64.7939 4.00395C64.0229 4.98588 63.1474 5.94249 62.6803 7.07833C62.2194 8.29709 62.0521 9.60873 62.1923 10.9054C61.616 9.74795 60.9286 8.65026 60.14 7.62802C60.0968 7.57235 60.0519 7.51842 60.0088 7.46275C60.4282 6.78608 60.8009 6.0746 60.9718 5.29877C61.172 4.39247 61.0632 3.37482 60.4868 2.64944C59.9122 1.92405 58.8146 1.59876 58.019 2.06843C57.7893 2.20672 57.5944 2.39663 57.4495 2.62333C57.5289 2.72249 57.6083 2.8199 57.6877 2.91906C57.6946 2.92818 57.7021 2.9369 57.7101 2.94516C57.7791 3.03213 57.8499 3.11737 57.9189 3.20435C57.9644 3.26067 58.0099 3.31702 58.0554 3.37342C58.1283 3.46406 58.1738 3.57403 58.1862 3.6901C58.1986 3.80616 58.1775 3.92337 58.1253 4.02761C58.0732 4.13186 57.9923 4.21869 57.8923 4.27765C57.7924 4.33662 57.6777 4.3652 57.562 4.35997L57.5496 4.35941C57.5168 4.35767 57.4823 4.35592 57.4495 4.35419C57.3442 4.34724 57.2372 4.33854 57.132 4.32463C57.1993 4.70441 57.3208 5.07237 57.4926 5.41706C57.9671 6.37597 58.7218 7.16523 59.655 7.67848C61.5831 10.1126 62.9109 12.973 63.5293 16.0248C63.6432 16.5867 63.7318 17.1532 63.7951 17.7244C63.8724 18.4204 63.911 19.1202 63.9107 19.8205C63.9069 22.6114 63.3077 25.3689 62.1539 27.9059C62.2777 27.3584 62.3063 26.7934 62.2385 26.236C62.0845 24.975 61.459 23.7803 60.9678 22.5877C60.4143 21.244 58.5224 21.2347 57.9642 22.5764C57.9586 22.5897 57.9531 22.6031 57.9476 22.6164C57.9629 22.6777 57.9739 22.7216 57.9892 22.7829C58.0805 22.868 58.1436 22.9793 58.1701 23.1017C58.1965 23.2242 58.185 23.3519 58.137 23.4675C58.089 23.5831 58.007 23.6811 57.9019 23.7481C57.7969 23.8151 57.6739 23.848 57.5497 23.8422L57.5496 23.8423ZM63.0634 12.9128L63.0608 12.9058L63.0634 12.9093V12.9128ZM64.1282 22.6038C64.1454 22.4838 64.1592 22.3637 64.1748 22.2437C64.1748 22.2628 64.1713 22.282 64.1713 22.3011C64.1696 22.3707 64.1696 22.4385 64.1713 22.5064L64.1299 22.6003L64.1282 22.6038Z" fill="#F2F2F2"/>
<path d="M52.6987 53.7491H37.9682C37.7599 53.7495 37.5601 53.8332 37.413 53.9819C37.2658 54.1306 37.1833 54.3322 37.1835 54.5422V77.9979H53.4854V54.5422C53.4855 54.4381 53.4652 54.3349 53.4257 54.2387C53.3861 54.1424 53.3282 54.055 53.2551 53.9813C53.182 53.9077 53.0953 53.8492 52.9998 53.8094C52.9043 53.7696 52.802 53.7491 52.6987 53.7491ZM45.383 67.0764C44.9223 67.0742 44.4812 66.8888 44.1554 66.5605C43.8297 66.2321 43.6457 65.7874 43.6436 65.3231V62.6177C43.6436 62.1526 43.8268 61.7067 44.153 61.3779C44.4793 61.0491 44.9217 60.8643 45.383 60.8643C45.8443 60.8643 46.2867 61.0491 46.6129 61.3779C46.9392 61.7067 47.1224 62.1526 47.1224 62.6177V65.3231C47.1203 65.7874 46.9363 66.2321 46.6106 66.5605C46.2848 66.8888 45.8437 67.0742 45.383 67.0764Z" fill="#E6E6E6"/>
<path d="M37.1329 77.2477V79.5107C37.1332 79.628 37.1795 79.7403 37.2618 79.8233C37.344 79.9062 37.4555 79.9529 37.5718 79.9531H53.0971C53.2134 79.9525 53.3247 79.9057 53.4069 79.8229C53.489 79.74 53.5355 79.6278 53.536 79.5107V77.2477L37.1329 77.2477Z" fill="#CCCCCC"/>
<path d="M77.091 17.1439H14.1242C13.5832 17.1447 13.0646 17.3617 12.6821 17.7473C12.2995 18.1329 12.0842 18.6556 12.0834 19.2009V62.0308C12.0839 62.5762 12.2991 63.0992 12.6817 63.4848C13.0643 63.8705 13.5831 64.0874 14.1242 64.0879H77.091C77.632 64.0874 78.1508 63.8705 78.5334 63.4848C78.916 63.0992 79.1312 62.5762 79.1317 62.0308V19.2009C79.1309 18.6556 78.9156 18.1329 78.5331 17.7473C78.1505 17.3617 77.6319 17.1447 77.091 17.1439Z" fill="#E6E6E6"/>
<path d="M76.5651 18.6291H14.6505C14.3607 18.6298 14.0831 18.7463 13.8784 18.953C13.6738 19.1598 13.5589 19.4399 13.5588 19.732V61.4999C13.5592 61.7916 13.6743 62.0713 13.8789 62.2776C14.0836 62.4839 14.361 62.5999 14.6505 62.6003H76.5651C76.8545 62.5999 77.132 62.4839 77.3367 62.2776C77.5413 62.0713 77.6564 61.7916 77.6567 61.4999V19.732C77.6567 19.4399 77.5418 19.1598 77.3372 18.953C77.1325 18.7463 76.8549 18.6298 76.5651 18.6291Z" fill="white"/>
<path d="M21.4415 60.2059C21.4428 61.0234 21.2983 61.8345 21.0149 62.6005H14.6502C14.3609 62.6 14.0836 62.484 13.8791 62.2778C13.6745 62.0715 13.5593 61.792 13.5588 61.5004V53.4313C13.9145 53.3733 14.2741 53.3442 14.6344 53.3444C15.5283 53.3443 16.4135 53.5217 17.2394 53.8665C18.0653 54.2113 18.8157 54.7168 19.4478 55.3539C20.0799 55.9911 20.5813 56.7475 20.9234 57.58C21.2655 58.4125 21.4415 59.3048 21.4415 60.2059Z" fill="#00635D"/>
<path d="M77.6567 19.732V56.0869C72.8928 57.4866 67.8061 57.2837 63.1669 55.5088C58.5276 53.7339 54.5883 50.4837 51.9455 46.2503C49.3027 42.0169 48.1001 37.0308 48.52 32.0469C48.9399 27.063 50.9592 22.3527 54.2724 18.6291H76.5651C76.8548 18.6298 77.1325 18.7463 77.3371 18.953C77.5417 19.1598 77.6567 19.4399 77.6567 19.732Z" fill="#E6E6E6"/>
<path d="M73.453 24.3844H15.5192C15.459 24.3831 15.4016 24.358 15.3595 24.3146C15.3173 24.2712 15.2937 24.2129 15.2937 24.1521C15.2937 24.0914 15.3173 24.0331 15.3595 23.9897C15.4016 23.9462 15.459 23.9212 15.5192 23.9199H73.453C73.5132 23.9212 73.5706 23.9462 73.6127 23.9897C73.6549 24.0331 73.6785 24.0914 73.6785 24.1521C73.6785 24.2129 73.6549 24.2712 73.6127 24.3146C73.5706 24.358 73.5132 24.3831 73.453 24.3844Z" fill="#CACACA"/>
<path d="M19.4628 22.7342C20.2085 22.7342 20.813 22.1113 20.813 21.343C20.813 20.5746 20.2085 19.9517 19.4628 19.9517C18.7172 19.9517 18.1127 20.5746 18.1127 21.343C18.1127 22.1113 18.7172 22.7342 19.4628 22.7342Z" fill="#3F3D56"/>
<path d="M24.1272 22.7342C24.8728 22.7342 25.4773 22.1113 25.4773 21.343C25.4773 20.5746 24.8728 19.9517 24.1272 19.9517C23.3815 19.9517 22.777 20.5746 22.777 21.343C22.777 22.1113 23.3815 22.7342 24.1272 22.7342Z" fill="#3F3D56"/>
<path d="M28.7913 22.7342C29.537 22.7342 30.1415 22.1113 30.1415 21.343C30.1415 20.5746 29.537 19.9517 28.7913 19.9517C28.0457 19.9517 27.4412 20.5746 27.4412 21.343C27.4412 22.1113 28.0457 22.7342 28.7913 22.7342Z" fill="#3F3D56"/>
<path d="M70.6447 20.2964H67.3315C67.2658 20.2978 67.2033 20.325 67.1573 20.3723C67.1113 20.4196 67.0856 20.4831 67.0856 20.5493C67.0856 20.6155 67.1113 20.6791 67.1573 20.7264C67.2033 20.7737 67.2658 20.8009 67.3315 20.8022H70.6447C70.7104 20.8009 70.7729 20.7737 70.8189 20.7264C70.8649 20.6791 70.8906 20.6155 70.8906 20.5493C70.8906 20.4831 70.8649 20.4196 70.8189 20.3723C70.7729 20.325 70.7104 20.2978 70.6447 20.2964Z" fill="#3F3D56"/>
<path d="M70.6447 21.2457H67.3315C67.2658 21.247 67.2033 21.2743 67.1573 21.3215C67.1113 21.3688 67.0856 21.4324 67.0856 21.4986C67.0856 21.5648 67.1113 21.6284 67.1573 21.6757C67.2033 21.7229 67.2658 21.7502 67.3315 21.7515H70.6447C70.7104 21.7502 70.7729 21.7229 70.8189 21.6757C70.8649 21.6284 70.8906 21.5648 70.8906 21.4986C70.8906 21.4324 70.8649 21.3688 70.8189 21.3215C70.7729 21.2743 70.7104 21.247 70.6447 21.2457Z" fill="#3F3D56"/>
<path d="M70.6447 22.1937H67.3315C67.2658 22.195 67.2033 22.2222 67.1573 22.2695C67.1113 22.3168 67.0856 22.3803 67.0856 22.4465C67.0856 22.5127 67.1113 22.5763 67.1573 22.6236C67.2033 22.6709 67.2658 22.6981 67.3315 22.6994H70.6447C70.7104 22.6981 70.7729 22.6709 70.8189 22.6236C70.8649 22.5763 70.8906 22.5127 70.8906 22.4465C70.8906 22.3803 70.8649 22.3168 70.8189 22.2695C70.7729 22.2222 70.7104 22.195 70.6447 22.1937Z" fill="#3F3D56"/>
<path d="M39.7846 8.32691C39.9887 7.89329 39.0432 7.01071 37.6729 6.3556C36.3026 5.70049 35.0263 5.52093 34.8223 5.95455C34.6183 6.38817 35.5637 7.27076 36.934 7.92587C38.3044 8.58098 39.5806 8.76053 39.7846 8.32691Z" fill="#2F2E41"/>
<path d="M51.0939 12.7931C51.4589 12.485 50.9656 11.2851 49.992 10.1129C49.0183 8.94078 47.9331 8.24033 47.5681 8.54842C47.203 8.85651 47.6964 10.0565 48.67 11.2286C49.6436 12.4008 50.7288 13.1012 51.0939 12.7931Z" fill="#2F2E41"/>
<path d="M43.4895 15.2456C46.5227 15.2456 48.9817 12.767 48.9817 9.70952C48.9817 6.65204 46.5227 4.17346 43.4895 4.17346C40.4562 4.17346 37.9973 6.65204 37.9973 9.70952C37.9973 12.767 40.4562 15.2456 43.4895 15.2456Z" fill="#2F2E41"/>
<path d="M45.814 14.0543H44.1455V17.0676H45.814V14.0543Z" fill="#2F2E41"/>
<path d="M42.4771 14.0543H40.8086V17.0676H42.4771V14.0543Z" fill="#2F2E41"/>
<path d="M44.4236 17.6282C45.1915 17.6282 45.814 17.3929 45.814 17.1026C45.814 16.8123 45.1915 16.577 44.4236 16.577C43.6557 16.577 43.0332 16.8123 43.0332 17.1026C43.0332 17.3929 43.6557 17.6282 44.4236 17.6282Z" fill="#2F2E41"/>
<path d="M41.0866 17.5581C41.8545 17.5581 42.477 17.3228 42.477 17.0325C42.477 16.7423 41.8545 16.507 41.0866 16.507C40.3187 16.507 39.6962 16.7423 39.6962 17.0325C39.6962 17.3228 40.3187 17.5581 41.0866 17.5581Z" fill="#2F2E41"/>
<path d="M41.7649 2.75054C42.2553 0.759777 44.4201 -0.411746 46.6 0.133873C48.7799 0.679492 50.1496 2.73565 49.6592 4.72642C49.1688 6.71719 47.5418 6.72361 45.3618 6.17799C43.1819 5.63236 41.2745 4.74131 41.7649 2.75054Z" fill="#E6E6E6"/>
<path d="M42.6684 10.3871C43.6797 10.3871 44.4995 9.56076 44.4995 8.5414C44.4995 7.52204 43.6797 6.69568 42.6684 6.69568C41.6571 6.69568 40.8373 7.52204 40.8373 8.5414C40.8373 9.56076 41.6571 10.3871 42.6684 10.3871Z" fill="white"/>
<path d="M42.5534 9.90901C42.8904 9.90901 43.1637 9.63356 43.1637 9.29377C43.1637 8.95398 42.8904 8.67853 42.5534 8.67853C42.2163 8.67853 41.943 8.95398 41.943 9.29377C41.943 9.63356 42.2163 9.90901 42.5534 9.90901Z" fill="#3F3D56"/>
<path d="M44.995 11.8831C45.1158 12.5516 43.4979 13.6961 42.8347 13.8178C42.5161 13.8762 42.1876 13.8048 41.9214 13.6191C41.6552 13.4334 41.473 13.1487 41.415 12.8276L41.4146 12.8252C41.2945 12.1565 41.8074 11.9199 42.4708 11.7988C43.1342 11.6778 44.8749 11.2144 44.995 11.8831Z" fill="white"/>
<path d="M64.4497 50.6635C65.3739 49.4514 65.8172 48.2317 65.4397 47.9393C65.0622 47.6468 64.007 48.3923 63.0827 49.6043C62.1584 50.8164 61.7152 52.036 62.0927 52.3285C62.4702 52.621 63.5254 51.8755 64.4497 50.6635Z" fill="#2F2E41"/>
<path d="M69.4802 54.7087C72.5134 54.7087 74.9724 52.2301 74.9724 49.1727C74.9724 46.1152 72.5134 43.6366 69.4802 43.6366C66.447 43.6366 63.988 46.1152 63.988 49.1727C63.988 52.2301 66.447 54.7087 69.4802 54.7087Z" fill="#2F2E41"/>
<path d="M71.983 53.5173H70.3145V56.5307H71.983V53.5173Z" fill="#2F2E41"/>
<path d="M68.646 53.5173H66.9775V56.5307H68.646V53.5173Z" fill="#2F2E41"/>
<path d="M70.5926 57.0913C71.3605 57.0913 71.983 56.856 71.983 56.5657C71.983 56.2755 71.3605 56.0402 70.5926 56.0402C69.8247 56.0402 69.2021 56.2755 69.2021 56.5657C69.2021 56.856 69.8247 57.0913 70.5926 57.0913Z" fill="#2F2E41"/>
<path d="M67.2555 57.0212C68.0234 57.0212 68.646 56.7859 68.646 56.4957C68.646 56.2054 68.0234 55.9701 67.2555 55.9701C66.4876 55.9701 65.8651 56.2054 65.8651 56.4957C65.8651 56.7859 66.4876 57.0212 67.2555 57.0212Z" fill="#2F2E41"/>
<path d="M69.3412 49.6632C70.3779 49.6632 71.2182 48.8161 71.2182 47.7711C71.2182 46.7261 70.3779 45.879 69.3412 45.879C68.3045 45.879 67.4641 46.7261 67.4641 47.7711C67.4641 48.8161 68.3045 49.6632 69.3412 49.6632Z" fill="white"/>
<path d="M69.2137 49.3015C69.5593 49.3015 69.8394 49.0192 69.8394 48.6708C69.8394 48.3225 69.5593 48.0402 69.2137 48.0402C68.8681 48.0402 68.588 48.3225 68.588 48.6708C68.588 49.0192 68.8681 49.3015 69.2137 49.3015Z" fill="#3F3D56"/>
<path d="M74.8079 44.0242C75.2514 42.0223 73.8338 39.9995 71.6416 39.5061C69.4495 39.0127 67.3129 40.2356 66.8694 42.2375C66.4259 44.2394 67.8788 44.9777 70.0709 45.4711C72.2631 45.9645 74.3644 46.0262 74.8079 44.0242Z" fill="#00635D"/>
<path d="M75.9719 53.9791C76.4003 53.7697 76.2111 52.4849 75.5493 51.1093C74.8875 49.7338 74.0038 48.7885 73.5754 48.9979C73.147 49.2073 73.3362 50.4922 73.9979 51.8677C74.6597 53.2432 75.5435 54.1885 75.9719 53.9791Z" fill="#2F2E41"/>
<path d="M72.178 51.1698C72.178 51.7117 70.794 52.7816 69.2582 52.7816C67.7223 52.7816 66.2823 51.2562 66.2823 50.7143C66.2823 50.1725 67.7224 50.8195 69.2582 50.8195C70.794 50.8195 72.178 50.628 72.178 51.1698Z" fill="white"/>
<path d="M65.3628 73.3476C68.396 73.3476 70.8549 70.8691 70.8549 67.8116C70.8549 64.7541 68.396 62.2755 65.3628 62.2755C62.3295 62.2755 59.8706 64.7541 59.8706 67.8116C59.8706 70.8691 62.3295 73.3476 65.3628 73.3476Z" fill="#2F2E41"/>
<path d="M64.5285 72.1562H62.86V75.1695H64.5285V72.1562Z" fill="#2F2E41"/>
<path d="M67.8655 72.1562H66.197V75.1695H67.8655V72.1562Z" fill="#2F2E41"/>
<path d="M65.3802 76.1887C65.5031 75.9262 65.0399 75.4455 64.3455 75.115C63.6511 74.7845 62.9885 74.7293 62.8656 74.9918C62.7426 75.2543 63.2059 75.735 63.9002 76.0655C64.5946 76.396 65.2572 76.4511 65.3802 76.1887Z" fill="#2F2E41"/>
<path d="M68.7485 76.0466C68.8567 75.7776 68.3674 75.3238 67.6557 75.0331C66.9441 74.7424 66.2794 74.7248 66.1713 74.9939C66.0631 75.2629 66.5524 75.7166 67.2641 76.0073C67.9758 76.298 68.6404 76.3156 68.7485 76.0466Z" fill="#2F2E41"/>
<path d="M60.0352 62.6632C59.5917 60.6612 61.0093 58.6384 63.2014 58.145C65.3936 57.6516 67.5302 58.8745 67.9737 60.8764C68.4171 62.8783 66.9643 63.6167 64.7722 64.1101C62.58 64.6035 60.4786 64.6651 60.0352 62.6632Z" fill="#00635D"/>
<path d="M71.8914 65.5392C72.4397 63.9356 72.4793 62.4949 71.9799 62.3214C71.4804 62.148 70.6311 63.3073 70.0828 64.9109C69.5346 66.5146 69.495 67.9552 69.9944 68.1287C70.4938 68.3022 71.3432 67.1429 71.8914 65.5392Z" fill="#2F2E41"/>
<path d="M60.9359 67.269C61.3096 66.8927 60.6483 65.6149 59.4589 64.415C58.2695 63.2152 57.0023 62.5476 56.6286 62.924C56.255 63.3004 56.9162 64.5781 58.1057 65.778C59.2951 66.9779 60.5622 67.6454 60.9359 67.269Z" fill="#2F2E41"/>
<path d="M23.7995 77.6174C26.8328 77.6174 29.2917 75.1388 29.2917 72.0813C29.2917 69.0239 26.8328 66.5453 23.7995 66.5453C20.7663 66.5453 18.3074 69.0239 18.3074 72.0813C18.3074 75.1388 20.7663 77.6174 23.7995 77.6174Z" fill="#2F2E41"/>
<path d="M22.9653 76.426H21.2968V79.4393H22.9653V76.426Z" fill="#2F2E41"/>
<path d="M26.3023 76.426H24.6338V79.4393H26.3023V76.426Z" fill="#2F2E41"/>
<path d="M22.6872 80C23.4551 80 24.0776 79.7647 24.0776 79.4744C24.0776 79.1842 23.4551 78.9489 22.6872 78.9489C21.9193 78.9489 21.2968 79.1842 21.2968 79.4744C21.2968 79.7647 21.9193 80 22.6872 80Z" fill="#2F2E41"/>
<path d="M26.0242 79.9299C26.7921 79.9299 27.4146 79.6946 27.4146 79.4044C27.4146 79.1141 26.7921 78.8788 26.0242 78.8788C25.2563 78.8788 24.6338 79.1141 24.6338 79.4044C24.6338 79.6946 25.2563 79.9299 26.0242 79.9299Z" fill="#2F2E41"/>
<path d="M18.4719 66.9329C18.0285 64.931 19.4461 62.9082 21.6382 62.4148C23.8304 61.9214 25.9669 63.1443 26.4104 65.1462C26.8539 67.1481 25.4011 67.8864 23.2089 68.3798C21.0168 68.8732 18.9154 68.9349 18.4719 66.9329Z" fill="#3F3D56"/>
<path d="M30.8419 73.5019C31.0889 73.0312 30.0833 72.0066 28.5958 71.2135C27.1084 70.4204 25.7023 70.159 25.4553 70.6297C25.2083 71.1004 26.2139 72.1249 27.7013 72.918C29.1888 73.7112 30.5948 73.9725 30.8419 73.5019Z" fill="#2F2E41"/>
<path d="M23.0375 44.2579C24.4078 43.6028 25.3533 42.7202 25.1493 42.2866C24.9452 41.8529 23.669 42.0325 22.2987 42.6876C20.9284 43.3427 19.9829 44.2253 20.1869 44.6589C20.391 45.0925 21.6672 44.913 23.0375 44.2579Z" fill="#2F2E41"/>
<path d="M11.3015 47.5606C12.2751 46.3885 12.7685 45.1885 12.4034 44.8804C12.0384 44.5723 10.9532 45.2728 9.97956 46.4449C9.00595 47.6171 8.51261 48.817 8.87766 49.1251C9.24271 49.4332 10.3279 48.7327 11.3015 47.5606Z" fill="#2F2E41"/>
<path d="M16.482 51.5776C19.5153 51.5776 21.9742 49.099 21.9742 46.0415C21.9742 42.9841 19.5153 40.5055 16.482 40.5055C13.4488 40.5055 10.9899 42.9841 10.9899 46.0415C10.9899 49.099 13.4488 51.5776 16.482 51.5776Z" fill="#2F2E41"/>
<path d="M15.826 50.3862H14.1575V53.3995H15.826V50.3862Z" fill="#2F2E41"/>
<path d="M19.163 50.3862H17.4945V53.3995H19.163V50.3862Z" fill="#2F2E41"/>
<path d="M15.5479 53.9602C16.3158 53.9602 16.9383 53.7249 16.9383 53.4346C16.9383 53.1444 16.3158 52.9091 15.5479 52.9091C14.78 52.9091 14.1575 53.1444 14.1575 53.4346C14.1575 53.7249 14.78 53.9602 15.5479 53.9602Z" fill="#2F2E41"/>
<path d="M18.8849 53.8901C19.6528 53.8901 20.2754 53.6548 20.2754 53.3646C20.2754 53.0743 19.6528 52.839 18.8849 52.839C18.117 52.839 17.4945 53.0743 17.4945 53.3646C17.4945 53.6548 18.117 53.8901 18.8849 53.8901Z" fill="#2F2E41"/>
<path d="M18.2067 39.0825C17.7162 37.0917 15.5515 35.9202 13.3716 36.4658C11.1916 37.0115 9.82201 39.0676 10.3124 41.0584C10.8028 43.0491 12.4298 43.0556 14.6098 42.5099C16.7897 41.9643 18.6971 41.0733 18.2067 39.0825Z" fill="#00635D"/>
<path d="M17.3031 46.719C18.3144 46.719 19.1342 45.8927 19.1342 44.8733C19.1342 43.8539 18.3144 43.0276 17.3031 43.0276C16.2918 43.0276 15.472 43.8539 15.472 44.8733C15.472 45.8927 16.2918 46.719 17.3031 46.719Z" fill="white"/>
<path d="M17.4181 46.241C17.7552 46.241 18.0285 45.9655 18.0285 45.6258C18.0285 45.286 17.7552 45.0105 17.4181 45.0105C17.081 45.0105 16.8077 45.286 16.8077 45.6258C16.8077 45.9655 17.081 46.241 17.4181 46.241Z" fill="#3F3D56"/>
<path d="M16.1545 48.7188C16.1258 48.8778 16.1284 49.0409 16.1623 49.1989C16.1961 49.3568 16.2604 49.5065 16.3517 49.6394C16.4429 49.7723 16.5592 49.8857 16.6939 49.9733C16.8286 50.0609 16.9791 50.1209 17.1369 50.1498C17.2946 50.1787 17.4564 50.1761 17.6131 50.142C17.7698 50.1079 17.9183 50.043 18.0501 49.9511C18.1819 49.8591 18.2945 49.7419 18.3814 49.6061C18.4683 49.4703 18.5278 49.3186 18.5565 49.1596L18.5569 49.1572C18.677 48.4885 18.1641 48.2519 17.5007 48.1308C16.8373 48.0098 16.2746 48.0501 16.1545 48.7188Z" fill="white"/>
<path d="M87.8482 79.9522L2.82086 79.9917C2.80089 79.9918 2.78109 79.9879 2.76262 79.9802C2.74415 79.9726 2.72736 79.9613 2.71321 79.9471C2.69906 79.9329 2.68784 79.916 2.68018 79.8974C2.67252 79.8788 2.66858 79.8588 2.66858 79.8387C2.66858 79.8185 2.67252 79.7986 2.68018 79.78C2.68784 79.7614 2.69906 79.7445 2.71321 79.7303C2.72736 79.7161 2.74415 79.7048 2.76262 79.6971C2.78109 79.6895 2.80089 79.6856 2.82086 79.6856L87.8482 79.6461C87.8884 79.6462 87.9269 79.6624 87.9553 79.6911C87.9836 79.7198 87.9996 79.7587 87.9996 79.7992C87.9996 79.8397 87.9836 79.8786 87.9553 79.9072C87.9269 79.9359 87.8884 79.9521 87.8482 79.9522Z" fill="#CACACA"/>
</g>
<defs>
<clipPath id="clip0_255_3">
<rect width="88" height="80" fill="white"/>
</clipPath>
</defs>
</svg>
