<svg width="93" height="80" viewBox="0 0 93 80" fill="none" xmlns="http://www.w3.org/2000/svg">
<g clip-path="url(#clip0_119_205)">
<path d="M28.8704 24.7281C28.8736 26.5356 29.4127 28.3017 30.4196 29.8028C31.4265 31.304 32.856 32.4729 34.5272 33.1616C36.1984 33.8504 38.0363 34.0281 39.8085 33.6724C41.5807 33.3166 43.2076 32.4433 44.4835 31.1628C45.7594 29.8824 46.627 28.2524 46.9765 26.4789C47.326 24.7055 47.1417 22.8682 46.447 21.1994C45.7523 19.5307 44.5784 18.1054 43.0737 17.1038C41.5689 16.1023 39.801 15.5694 37.9934 15.5726C36.7924 15.5716 35.6029 15.808 34.4935 16.2681C33.3841 16.7283 32.3765 17.4032 31.5288 18.2539C30.681 19.1047 30.0097 20.1147 29.5535 21.2257C29.0973 22.3368 28.8651 23.527 28.8704 24.7281Z" fill="#F2F2F2"/>
<path d="M13.6596 30.0556L12.3746 27.6019C13.5269 26.2104 17.3077 24.5227 17.3077 24.5227L22.4247 19.8652C22.4792 19.6574 22.5875 19.4676 22.7386 19.315C22.8898 19.1623 23.0785 19.0522 23.2857 18.9956C23.493 18.9391 23.7115 18.9381 23.9192 18.9929C24.1269 19.0476 24.3166 19.1561 24.469 19.3075C24.6215 19.4588 24.7314 19.6476 24.7877 19.8549C24.844 20.0623 24.8447 20.2807 24.7897 20.4884C24.7347 20.6961 24.626 20.8856 24.4745 21.0379C24.323 21.1902 24.134 21.2998 23.9266 21.3559L18.3985 27.986L13.6596 30.0556Z" fill="#9E616A"/>
<path d="M14.2821 29.8863L12.4676 30.464C11.1481 30.8841 9.72628 30.8524 8.4268 30.374C8.03372 30.2277 7.6894 29.9743 7.43276 29.6425C7.17612 29.3108 7.01739 28.9138 6.9745 28.4966C6.92017 27.9306 7.08278 27.3651 7.42946 26.9144C7.77614 26.4637 8.28103 26.1615 8.84202 26.0688C10.5436 25.7892 12.7362 25.6513 13.5184 26.5821L13.5263 26.5915L14.2821 29.8863Z" fill="#3F3D56"/>
<path d="M27.3335 37.398C22.286 37.398 18.1942 33.3062 18.1942 28.2587C18.1942 23.2112 22.286 19.1194 27.3335 19.1194C32.381 19.1194 36.4728 23.2112 36.4728 28.2587C36.4728 33.3062 32.381 37.398 27.3335 37.398Z" fill="white"/>
<path d="M31.0633 24.6839C31.1888 25.3578 31.3944 26.0143 31.676 26.6393C33.2882 30.0498 28.697 28.9382 27.0562 28.9382C25.2623 28.9382 23.5459 29.8815 23.8081 25.69C23.9201 23.8996 25.2623 22.4419 27.0562 22.4419C28.5885 22.4419 30.7429 23.123 31.0633 24.6839Z" fill="#2F2E41"/>
<path d="M27.325 28.9374C25.8672 28.9374 24.6855 27.7557 24.6855 26.2979C24.6855 24.8402 25.8672 23.6584 27.325 23.6584C28.7827 23.6584 29.9645 24.8402 29.9645 26.2979C29.9645 27.7557 28.7827 28.9374 27.325 28.9374Z" fill="#FFB6B6"/>
<path d="M29.1175 23.6073C28.655 23.3253 28.1252 23.1728 27.5836 23.1657C27.0419 23.1585 26.5083 23.297 26.0385 23.5667C25.5687 23.8364 25.18 24.2273 24.913 24.6987C24.646 25.17 24.5106 25.7044 24.5208 26.246C25.8658 26.5837 27.2787 26.8421 28.713 26.3268L29.0518 25.4978L29.2515 26.3274C29.6882 26.5059 30.1262 26.657 30.5641 26.3257C30.582 25.7856 30.4578 25.2503 30.2039 24.7732C29.9501 24.2962 29.5755 23.8942 29.1175 23.6073Z" fill="#2F2E41"/>
<path d="M20.2272 34.3358C21.8106 36.1374 24.0389 37.2441 26.4312 37.417C28.8234 37.5899 31.1877 36.8151 33.0137 35.2599L32.2298 33.0725C32.0526 32.684 31.7731 32.3511 31.4211 32.1094C31.0691 31.8677 30.658 31.7263 30.2318 31.7005L29.7331 31.6699L28.5439 30.6443C28.5439 30.6443 25.3399 30.5299 25.3874 30.4751L23.4466 31.6425L23.4482 31.6344L22.6852 31.6812C22.259 31.7069 21.8478 31.8482 21.4958 32.0899C21.1438 32.3316 20.8643 32.6646 20.6872 33.0532L20.2272 34.3358Z" fill="#00635D"/>
<path d="M28.1353 71.995L28.3624 68.8364C29.85 68.0928 31.4966 67.7236 33.1593 67.7607C30.8201 69.5688 31.0075 73.1826 29.3875 75.6557C28.8763 76.4232 28.199 77.0658 27.4057 77.536C26.6124 78.0061 25.7235 78.2917 24.8048 78.3716L22.8581 79.4915C22.6354 78.0197 22.7344 76.517 23.1484 75.0871C23.5624 73.6572 24.2814 72.3341 25.2559 71.2088C25.8089 70.583 26.4385 70.0293 27.1299 69.5608C27.5554 70.7825 28.1353 71.995 28.1353 71.995Z" fill="#F2F2F2"/>
<path d="M87.3254 16.0105L87.5525 12.8519C89.0401 12.1083 90.6867 11.7391 92.3494 11.7762C90.0102 13.5843 90.1976 17.1981 88.5776 19.6712C88.0664 20.4387 87.3891 21.0813 86.5958 21.5515C85.8025 22.0216 84.9136 22.3072 83.9949 22.3871L82.0481 23.5071C81.8254 22.0352 81.9245 20.5326 82.3384 19.1027C82.7524 17.6728 83.4714 16.3496 84.446 15.2244C84.999 14.5985 85.6286 14.0448 86.3199 13.5763C86.7454 14.798 87.3254 16.0105 87.3254 16.0105Z" fill="#F2F2F2"/>
<path d="M19.6191 78.4236L21.1377 78.4235L21.8601 72.5664H19.6189L19.6191 78.4236Z" fill="#9E616A"/>
<path d="M19.2318 79.8957L24.1282 79.8955V79.8336C24.1281 79.3281 23.9273 78.8434 23.5699 78.486C23.2125 78.1286 22.7278 77.9278 22.2224 77.9278H22.2223L21.3279 77.2493L19.6592 77.9279L19.2317 77.9279L19.2318 79.8957Z" fill="#2F2E41"/>
<path d="M6.23582 78.4236L7.75427 78.4235L8.47668 72.5664H6.23547L6.23582 78.4236Z" fill="#9E616A"/>
<path d="M5.84853 79.8957L10.7449 79.8955V79.8336C10.7448 79.3281 10.544 78.8434 10.1866 78.486C9.82924 78.1286 9.34451 77.9278 8.83908 77.9278H8.83896L7.94458 77.2493L6.27586 77.9279L5.84843 77.9279L5.84853 79.8957Z" fill="#2F2E41"/>
<path d="M8.54532 47.0756L7.26812 59.2091C7.26812 59.2091 5.56787 71.3582 5.88717 73.0345C6.20648 74.7108 5.80734 74.9503 5.80734 74.9503L8.72084 74.7428C8.72084 74.7428 8.64101 73.7051 9.11997 73.2261C9.59892 72.7472 9.35944 71.3103 9.35944 71.3103L15.0112 51.5459L18.4437 61.9232C18.4437 61.9232 19.0025 73.3382 19.0823 73.4978C19.1621 73.6575 19.4016 75.8128 19.4016 75.8128H22.3552C22.3552 75.8128 21.956 74.5356 22.5148 74.1364C23.0736 73.7373 23.5525 74.0566 23.0736 73.3382C22.5946 72.6198 22.435 71.7417 22.5946 71.3426C22.7543 70.9434 22.7543 69.3469 22.7543 69.3469C22.7543 69.3469 22.5148 47.7941 21.1578 47.0757C19.8007 46.3572 8.54532 47.0756 8.54532 47.0756Z" fill="#2F2E41"/>
<path d="M14.594 22.5085C12.859 22.5085 11.4526 21.102 11.4526 19.3671C11.4526 17.6322 12.859 16.2257 14.594 16.2257C16.3289 16.2257 17.7354 17.6322 17.7354 19.3671C17.7354 21.102 16.3289 22.5085 14.594 22.5085Z" fill="#9E616A"/>
<path d="M7.45976 48.3981C13.5435 49.6545 21.6056 47.4945 21.6056 47.4945L19.4549 38.1718L20.2195 28.4154C20.3129 27.2224 19.6334 26.104 18.5762 25.7077L17.1165 25.1609L15.9099 23.4335L12.4635 23.5466L11.0857 25.3601L9.99844 25.9369L7.64131 27.1871L7.63094 27.1923V27.1975L8.37065 34.3726L8.81676 38.6988C8.81676 38.6988 7.46183 43.5645 7.73987 44.2099C8.01791 44.8541 7.77617 44.5429 7.70875 44.8873C7.64132 45.2318 7.43486 45.2536 7.40374 45.9321C7.37158 46.6095 7.45976 48.3981 7.45976 48.3981Z" fill="#3F3D56"/>
<path d="M0.105305 80.0001H47.0992C47.127 80 47.1537 79.9888 47.1734 79.9691C47.1931 79.9494 47.2041 79.9227 47.2041 79.8948C47.2041 79.867 47.1931 79.8402 47.1734 79.8205C47.1537 79.8008 47.127 79.7896 47.0992 79.7896H0.105305C0.0773926 79.7896 0.0506172 79.8006 0.03088 79.8204C0.0111389 79.8401 5.72205e-05 79.8669 5.72205e-05 79.8948C5.72205e-05 79.9227 0.0111389 79.9495 0.03088 79.9692C0.0506172 79.989 0.0773926 80.0001 0.105305 80.0001Z" fill="#CCCCCC"/>
<path d="M14.7468 22.3575C14.1958 22.3519 13.6463 22.2992 13.1043 22.2C12.5677 22.0764 11.3839 21.161 11.0612 20.6202C10.8215 20.2184 10.6776 19.5969 10.5991 19.1463C10.4931 18.5499 10.5135 17.938 10.6591 17.35C10.8046 16.7621 11.072 16.2113 11.4439 15.7332C11.5873 15.533 11.7822 15.3752 12.0079 15.2765C12.0278 15.2693 12.0483 15.263 12.069 15.2577C12.3962 15.1806 12.6928 15.0074 12.9209 14.7605C12.9651 14.7105 13.0129 14.6638 13.0639 14.6207C13.3198 14.4159 13.6204 14.2745 13.9413 14.2081C14.4598 14.0836 15.2014 14.2396 16.1456 14.6723C16.62 14.8896 17.1464 14.829 17.5522 14.7519C17.575 14.7481 17.5983 14.7503 17.6199 14.7583C17.6416 14.7664 17.6607 14.7799 17.6755 14.7977C17.843 14.9633 18.067 15.0593 18.3024 15.0666C18.4465 15.0766 18.5927 15.2802 18.7689 15.5454C18.8088 15.6056 18.8555 15.6758 18.8893 15.7187L18.8961 15.6382L18.9754 15.7302C19.1 15.8749 19.1859 16.0487 19.2253 16.2356C19.2646 16.4224 19.256 16.6162 19.2003 16.7988C19.1445 16.9814 19.0435 17.147 18.9066 17.28C18.7697 17.4131 18.6013 17.5093 18.4171 17.5598C18.2711 17.5947 18.1218 17.6145 17.9717 17.6191C17.8807 17.6249 17.7865 17.6309 17.6961 17.6442C17.4057 17.6959 17.1337 17.822 16.9066 18.0102C16.6794 18.1985 16.505 18.4423 16.4003 18.7181C16.3756 18.7818 16.3365 18.839 16.2862 18.8853C16.2359 18.9315 16.1756 18.9656 16.11 18.9848C16.0444 19.0041 15.9753 19.008 15.9079 18.9963C15.8406 18.9845 15.7768 18.9575 15.7216 18.9172C15.6297 18.8418 15.521 18.7897 15.4046 18.7654C15.2882 18.7411 15.1677 18.7453 15.0533 18.7776C14.9539 18.8296 14.8753 18.9143 14.8308 19.0173C14.777 19.132 14.6902 19.2281 14.5816 19.2933C14.2112 19.4723 14.1645 20.3065 14.2778 21.0059C14.387 21.68 14.6246 22.1718 14.8556 22.2018C15.0335 22.2248 15.0535 22.238 15.0656 22.2699L15.0764 22.2984L15.0557 22.3243C14.9563 22.3575 14.8509 22.3688 14.7468 22.3575Z" fill="#2F2E41"/>
<path d="M27.3334 37.5125C29.1636 37.5125 30.9527 36.9698 32.4745 35.9529C33.9963 34.9361 35.1824 33.4909 35.8827 31.8C36.5831 30.1091 36.7664 28.2485 36.4093 26.4534C36.0523 24.6583 35.171 23.0095 33.8768 21.7153C32.5826 20.4212 30.9338 19.5398 29.1387 19.1828C27.3437 18.8257 25.483 19.009 23.7921 19.7093C22.1012 20.4097 20.656 21.5958 19.6392 23.1176C18.6224 24.6394 18.0796 26.4285 18.0796 28.2587C18.0824 30.7121 19.0583 33.0642 20.7931 34.799C22.5279 36.5339 24.88 37.5097 27.3334 37.5125ZM27.3334 19.2339C29.1183 19.2339 30.8632 19.7632 32.3473 20.7549C33.8314 21.7465 34.9881 23.156 35.6712 24.8051C36.3543 26.4541 36.533 28.2687 36.1848 30.0194C35.8365 31.77 34.977 33.3781 33.7149 34.6402C32.4527 35.9024 30.8447 36.7619 29.094 37.1101C27.3434 37.4583 25.5288 37.2796 23.8798 36.5965C22.2307 35.9135 20.8212 34.7567 19.8296 33.2726C18.8379 31.7885 18.3086 30.0437 18.3086 28.2587C18.3113 25.866 19.263 23.5721 20.9549 21.8802C22.6468 20.1883 24.9407 19.2366 27.3334 19.2339Z" fill="#3F3D56"/>
<path d="M59.2755 18.3931C54.228 18.3931 50.1362 14.3013 50.1362 9.25379C50.1362 4.2063 54.228 0.114502 59.2755 0.114502C64.323 0.114502 68.4148 4.2063 68.4148 9.25379C68.4148 14.3013 64.323 18.3931 59.2755 18.3931Z" fill="white"/>
<path d="M58.8525 10.186C57.2066 10.186 55.8723 8.85176 55.8723 7.20587C55.8723 5.55997 57.2066 4.22571 58.8525 4.22571C60.4984 4.22571 61.8326 5.55997 61.8326 7.20587C61.8326 8.85176 60.4984 10.186 58.8525 10.186Z" fill="#FFB8B8"/>
<path d="M56.2285 5.23709C56.2285 5.23709 55.4526 3.75375 57.1597 3.6189C57.1597 3.6189 58.615 2.29876 60.0983 3.37756C60.0983 3.37756 60.9074 3.37756 61.3499 4.29315C61.3499 4.29315 61.9862 4.05181 62.1261 4.69769C62.1261 4.69769 62.5917 6.04619 62.1261 7.25984C61.6604 8.47348 61.5058 8.60833 61.5058 8.60833C61.5058 8.60833 61.8325 7.10226 59.97 6.96741C58.1076 6.83256 56.399 5.66584 56.2438 7.14918C56.0886 8.63252 55.918 7.96244 55.918 7.96244C55.918 7.96244 54.4438 5.84392 56.2285 5.23709Z" fill="#2F2E41"/>
<path d="M52.4024 15.3308C53.9857 17.1324 56.2141 18.2392 58.6063 18.412C60.9986 18.5849 63.3629 17.8101 65.1888 16.2549L64.4049 14.0676C64.2278 13.6791 63.9482 13.3461 63.5963 13.1044C63.2443 12.8627 62.8331 12.7214 62.4069 12.6956L61.9082 12.6649L60.7191 11.6393C60.7191 11.6393 57.515 11.5249 57.5626 11.4702L55.6217 12.6375L55.6234 12.6295L54.8604 12.6762C54.4342 12.7019 54.023 12.8432 53.671 13.0849C53.319 13.3267 53.0394 13.6597 52.8624 14.0482L52.4024 15.3308Z" fill="#00635D"/>
<path d="M59.2755 18.5075C61.1058 18.5075 62.8949 17.9648 64.4166 16.948C65.9384 15.9312 67.1245 14.4859 67.8249 12.795C68.5253 11.1041 68.7085 9.2435 68.3515 7.44845C67.9944 5.65339 67.1131 4.00453 65.8189 2.71037C64.5248 1.41621 62.8759 0.534871 61.0809 0.177813C59.2858 -0.179246 57.4252 0.0040089 55.7343 0.704404C54.0434 1.4048 52.5981 2.59088 51.5813 4.11265C50.5645 5.63442 50.0218 7.42354 50.0218 9.25376C50.0246 11.7072 51.0004 14.0593 52.7352 15.7941C54.47 17.5289 56.8221 18.5047 59.2755 18.5075ZM59.2755 0.228979C61.0605 0.228979 62.8053 0.758273 64.2894 1.74993C65.7736 2.74158 66.9303 4.15106 67.6133 5.80013C68.2964 7.44919 68.4751 9.26377 68.1269 11.0144C67.7787 12.765 66.9192 14.3731 65.657 15.6353C64.3949 16.8974 62.7868 17.7569 61.0362 18.1051C59.2856 18.4534 57.471 18.2746 55.8219 17.5916C54.1728 16.9085 52.7634 15.7518 51.7717 14.2677C50.7801 12.7835 50.2508 11.0387 50.2508 9.25376C50.2535 6.86108 51.2052 4.56716 52.8971 2.87528C54.5889 1.18339 56.8829 0.231693 59.2755 0.228979Z" fill="#3F3D56"/>
<path d="M80.6072 32.8185C75.5597 32.8185 71.4679 28.7267 71.4679 23.6792C71.4679 18.6317 75.5597 14.5399 80.6072 14.5399C85.6547 14.5399 89.7465 18.6317 89.7465 23.6792C89.7465 28.7267 85.6547 32.8185 80.6072 32.8185Z" fill="white"/>
<path d="M84.8432 20.7062C84.4653 19.5018 83.6059 18.3972 82.4174 17.9901C81.2289 17.5829 79.4885 18.2032 78.595 19.0937C76.9606 20.7226 76.5617 26.3185 77.6846 28.0869C77.908 28.075 78.6787 28.0663 78.9047 28.0578L79.2245 26.992V28.0473C79.5847 28.0362 79.9476 28.0285 80.3134 28.0243C81.5398 28.0091 82.7126 27.519 83.5851 26.657C84.4576 25.7951 84.962 24.6284 84.9922 23.4023C85.0214 22.2293 84.9921 21.1808 84.8432 20.7062Z" fill="#2F2E41"/>
<path d="M80.7428 24.6977C79.3043 24.6977 78.1381 23.5316 78.1381 22.0931C78.1381 20.6546 79.3043 19.4885 80.7428 19.4885C82.1813 19.4885 83.3474 20.6546 83.3474 22.0931C83.3474 23.5316 82.1813 24.6977 80.7428 24.6977Z" fill="#9E616A"/>
<path d="M82.9906 19.8056L79.9916 18.304C79.3785 18.5802 78.8504 19.0155 78.4622 19.5647C78.074 20.1138 77.8398 20.7568 77.7839 21.427L77.7091 22.3224L78.965 22.0027L79.1025 20.8578L79.3158 21.9134L79.8954 21.7659L79.8898 19.9884L80.4698 21.7646L82.5397 21.2891L82.9906 19.8056Z" fill="#2F2E41"/>
<path d="M73.8252 29.7272C75.4086 31.5288 77.6369 32.6355 80.0292 32.8084C82.4214 32.9813 84.7857 32.2065 86.6117 30.6513L85.8278 28.4639C85.6506 28.0754 85.3711 27.7425 85.0191 27.5008C84.6671 27.2591 84.256 27.1177 83.8298 27.0919L83.3311 27.0613L82.142 26.0357C82.142 26.0357 78.9379 25.9213 78.9854 25.8665L77.0446 27.0339L77.0462 27.0258L76.2833 27.0726C75.857 27.0983 75.4459 27.2396 75.0939 27.4813C74.7419 27.723 74.4623 28.056 74.2853 28.4446L73.8252 29.7272Z" fill="#00635D"/>
<path d="M80.6072 32.9329C82.4374 32.9329 84.2265 32.3902 85.7483 31.3734C87.2701 30.3566 88.4562 28.9114 89.1566 27.2204C89.857 25.5295 90.0402 23.6689 89.6831 21.8739C89.3261 20.0788 88.4448 18.4299 87.1506 17.1358C85.8564 15.8416 84.2076 14.9603 82.4125 14.6032C80.6175 14.2462 78.7568 14.4294 77.0659 15.1298C75.375 15.8302 73.9298 17.0163 72.913 18.5381C71.8962 20.0598 71.3534 21.849 71.3534 23.6792C71.3562 26.1326 72.3321 28.4847 74.0669 30.2195C75.8017 31.9543 78.1538 32.9302 80.6072 32.9329ZM80.6072 14.6544C82.3921 14.6544 84.137 15.1837 85.6211 16.1753C87.1052 17.167 88.2619 18.5765 88.945 20.2255C89.6281 21.8746 89.8068 23.6892 89.4586 25.4398C89.1104 27.1905 88.2508 28.7985 86.9887 30.0607C85.7265 31.3228 84.1185 32.1823 82.3679 32.5306C80.6172 32.8788 78.8026 32.7001 77.1536 32.017C75.5045 31.3339 74.095 30.1772 73.1034 28.6931C72.1117 27.209 71.5824 25.4641 71.5824 23.6792C71.5851 21.2865 72.5368 18.9926 74.2287 17.3007C75.9206 15.6088 78.2145 14.6571 80.6072 14.6544V14.6544Z" fill="#3F3D56"/>
<path d="M18.8927 33L20.2763 30.6005C22.0686 30.8282 25.519 33.1167 25.519 33.1167L32.1929 34.9428C32.3976 34.8775 32.6158 34.8673 32.8257 34.9132C33.0356 34.959 33.2297 35.0594 33.3884 35.2041C33.5472 35.3488 33.665 35.5328 33.7301 35.7375C33.7951 35.9423 33.8051 36.1605 33.759 36.3704C33.7128 36.5802 33.6123 36.7741 33.4674 36.9327C33.3225 37.0913 33.1383 37.2089 32.9335 37.2737C32.7287 37.3385 32.5104 37.3482 32.3007 37.3019C32.0909 37.2555 31.8971 37.1547 31.7387 37.0096L23.1788 35.8931L18.8927 33Z" fill="#9E616A"/>
<path d="M19.3691 33.435L16.2713 30.8403L15.8207 28.7519C15.7337 28.3415 15.7632 27.9151 15.9059 27.5206C16.0486 27.1262 16.2987 26.7795 16.6281 26.5198C17.0769 26.1707 17.6416 26.0051 18.2079 26.0565C18.7741 26.1078 19.2998 26.3722 19.6785 26.7963C20.8262 28.0834 22.1171 29.861 21.7501 31.0201L21.7464 31.0319L19.3691 33.435Z" fill="#3F3D56"/>
<path d="M66.8476 42.4485H78.487C78.799 42.4482 79.098 42.3241 79.3186 42.1035C79.5392 41.883 79.6632 41.5839 79.6636 41.272V34.1032C79.6632 33.7913 79.5392 33.4922 79.3186 33.2716C79.098 33.0511 78.799 32.927 78.487 32.9266H66.8476C66.5357 32.927 66.2367 33.0511 66.0161 33.2716C65.7955 33.4922 65.6714 33.7913 65.6711 34.1032V41.272C65.6714 41.5839 65.7955 41.883 66.0161 42.1035C66.2366 42.3241 66.5357 42.4482 66.8476 42.4485Z" fill="#E6E6E6"/>
<path d="M71.4722 41.5252H77.6689C77.9611 41.5248 78.2412 41.4087 78.4477 41.2021C78.6543 40.9955 78.7705 40.7154 78.7709 40.4233V34.9519C78.7705 34.6598 78.6543 34.3797 78.4477 34.1731C78.2412 33.9666 77.9611 33.8504 77.6689 33.85H67.6659C67.3737 33.8504 67.0936 33.9666 66.8871 34.1731C66.6805 34.3797 66.5643 34.6598 66.564 34.9519V36.617C66.5655 37.9183 67.0831 39.1658 68.0032 40.086C68.9234 41.0061 70.1709 41.5237 71.4722 41.5252Z" fill="white"/>
<path d="M68.6637 36.846H76.671C76.7402 36.846 76.8067 36.8185 76.8556 36.7695C76.9046 36.7206 76.9321 36.6541 76.9321 36.5849C76.9321 36.5156 76.9046 36.4492 76.8556 36.4002C76.8067 36.3512 76.7402 36.3237 76.671 36.3237H68.6637C68.5944 36.3237 68.528 36.3512 68.479 36.4002C68.43 36.4492 68.4025 36.5156 68.4025 36.5849C68.4025 36.6541 68.43 36.7206 68.479 36.7695C68.528 36.8185 68.5944 36.846 68.6637 36.846Z" fill="#00635D"/>
<path d="M75.4185 37.8779H76.6711C76.7404 37.8779 76.8068 37.8504 76.8558 37.8014C76.9047 37.7524 76.9323 37.686 76.9323 37.6167C76.9323 37.5475 76.9047 37.4811 76.8558 37.4321C76.8068 37.3831 76.7404 37.3556 76.6711 37.3556H75.4185C75.3493 37.3556 75.2829 37.3831 75.2339 37.4321C75.1849 37.4811 75.1574 37.5475 75.1574 37.6167C75.1574 37.686 75.1849 37.7524 75.2339 37.8014C75.2829 37.8504 75.3493 37.8779 75.4185 37.8779Z" fill="#00635D"/>
<path d="M73.2 38.9099H76.671C76.7402 38.9097 76.8065 38.8822 76.8553 38.8332C76.9042 38.7842 76.9316 38.7179 76.9316 38.6487C76.9316 38.5796 76.9042 38.5132 76.8553 38.4643C76.8065 38.4153 76.7402 38.3877 76.671 38.3876H73.2C73.1309 38.3877 73.0646 38.4153 73.0157 38.4643C72.9669 38.5132 72.9394 38.5796 72.9394 38.6487C72.9394 38.7179 72.9669 38.7842 73.0157 38.8332C73.0646 38.8822 73.1309 38.9097 73.2 38.9099Z" fill="#00635D"/>
<path d="M80.0698 35.246C78.71 35.246 77.6076 34.1437 77.6076 32.7838C77.6076 31.424 78.71 30.3217 80.0698 30.3217C81.4296 30.3217 82.532 31.424 82.532 32.7838C82.532 34.1437 81.4296 35.246 80.0698 35.246Z" fill="#3F3D56"/>
<path d="M36.6229 9.93407H48.2623C48.5742 9.93372 48.8733 9.80964 49.0938 9.58907C49.3144 9.3685 49.4385 9.06944 49.4388 8.75751V1.58873C49.4385 1.2768 49.3144 0.977742 49.0938 0.75717C48.8733 0.536597 48.5742 0.412524 48.2623 0.41217H36.6229C36.311 0.412523 36.0119 0.536596 35.7913 0.757168C35.5708 0.97774 35.4467 1.2768 35.4463 1.58873V8.7575C35.4467 9.06944 35.5708 9.3685 35.7913 9.58907C36.0119 9.80964 36.311 9.93372 36.6229 9.93407Z" fill="#E6E6E6"/>
<path d="M41.2475 9.0107H47.4442C47.7363 9.01038 48.0164 8.89419 48.223 8.68762C48.4296 8.48105 48.5458 8.20096 48.5461 7.90882V2.43746C48.5458 2.14531 48.4296 1.86523 48.223 1.65866C48.0164 1.45209 47.7363 1.33589 47.4442 1.33557H37.4411C37.149 1.3359 36.8689 1.45209 36.6623 1.65866C36.4557 1.86524 36.3395 2.14532 36.3392 2.43746V4.1025C36.3407 5.4038 36.8583 6.65137 37.7784 7.57152C38.6986 8.49166 39.9462 9.00924 41.2475 9.0107Z" fill="white"/>
<path d="M38.439 4.33156H46.4464C46.5156 4.33156 46.5821 4.30404 46.631 4.25507C46.68 4.20609 46.7075 4.13967 46.7075 4.07041C46.7075 4.00115 46.68 3.93473 46.631 3.88575C46.5821 3.83678 46.5156 3.80927 46.4464 3.80927H38.439C38.3698 3.80927 38.3034 3.83678 38.2544 3.88575C38.2054 3.93473 38.1779 4.00115 38.1779 4.07041C38.1779 4.13967 38.2054 4.20609 38.2544 4.25507C38.3034 4.30404 38.3698 4.33156 38.439 4.33156Z" fill="#00635D"/>
<path d="M45.1938 5.36344H46.4464C46.5156 5.36344 46.5821 5.33593 46.631 5.28695C46.68 5.23797 46.7075 5.17155 46.7075 5.10228C46.7075 5.03302 46.68 4.96659 46.631 4.91762C46.5821 4.86864 46.5156 4.84113 46.4464 4.84113H45.1938C45.1246 4.84113 45.0581 4.86864 45.0092 4.91762C44.9602 4.96659 44.9327 5.03302 44.9327 5.10228C44.9327 5.17155 44.9602 5.23797 45.0092 5.28695C45.0581 5.33593 45.1246 5.36344 45.1938 5.36344Z" fill="#00635D"/>
<path d="M42.9753 6.39537H46.4463C46.5155 6.39522 46.5818 6.36764 46.6306 6.31868C46.6795 6.26972 46.7069 6.20338 46.7069 6.13421C46.7069 6.06504 46.6795 5.99869 46.6306 5.94973C46.5818 5.90077 46.5155 5.87319 46.4463 5.87305H42.9753C42.9061 5.87305 42.8396 5.90056 42.7907 5.94954C42.7417 5.99852 42.7142 6.06494 42.7142 6.13421C42.7142 6.20347 42.7417 6.2699 42.7907 6.31887C42.8396 6.36785 42.9061 6.39537 42.9753 6.39537Z" fill="#00635D"/>
<path d="M49.8451 11.3182C48.4852 11.3182 47.3829 10.2158 47.3829 8.85598C47.3829 7.49616 48.4852 6.3938 49.8451 6.3938C51.2049 6.3938 52.3073 7.49616 52.3073 8.85598C52.3073 10.2158 51.2049 11.3182 49.8451 11.3182Z" fill="#3F3D56"/>
</g>
<defs>
<clipPath id="clip0_119_205">
<rect width="92.3493" height="80" fill="white" transform="matrix(-1 0 0 1 92.3494 0)"/>
</clipPath>
</defs>
</svg>
