<svg width="77" height="80" viewBox="0 0 77 80" fill="none" xmlns="http://www.w3.org/2000/svg">
<path d="M54.3053 35.0304C58.7526 35.0304 62.3578 31.4251 62.3578 26.9778C62.3578 22.5305 58.7526 18.9252 54.3053 18.9252C49.8579 18.9252 46.2527 22.5305 46.2527 26.9778C46.2527 31.4251 49.8579 35.0304 54.3053 35.0304Z" fill="#FF6584"/>
<path d="M76.3939 32.9817C76.4116 32.9785 76.425 32.9661 76.4457 32.9693C76.4366 32.9344 76.4248 32.9003 76.4104 32.8673C76.3847 32.9022 76.3586 32.9379 76.3357 32.9691L76.3939 32.9817Z" fill="white"/>
<path d="M22.384 46.0367C22.431 47.7936 22.7253 49.535 23.2582 51.2098C23.2703 51.2487 23.2831 51.2869 23.2959 51.3258H26.5582C26.5547 51.291 26.5512 51.2521 26.5477 51.2098C26.3302 48.7091 25.0761 33.4891 26.5756 30.8864C26.4445 31.0975 22.1311 38.0909 22.384 46.0367Z" fill="#E6E6E6"/>
<path d="M22.6287 51.2098C22.656 51.2486 22.6844 51.2875 22.7134 51.3258H25.1608C25.1422 51.2927 25.1207 51.2539 25.0958 51.2098C24.6915 50.4801 23.4948 48.2984 22.3839 46.0367C21.1901 43.6062 20.095 41.0834 20.1872 40.1704C20.1588 40.3763 19.3327 46.6539 22.6287 51.2098Z" fill="#E6E6E6"/>
<path d="M48.0601 51.6281C48.0191 53.1598 47.7625 54.678 47.298 56.1381C47.2873 56.172 47.2762 56.2053 47.2651 56.2392H44.4209C44.424 56.2089 44.427 56.175 44.43 56.1381C44.6197 53.9579 45.713 40.689 44.4058 38.4198C44.5201 38.6039 48.2806 44.7008 48.0601 51.6281Z" fill="#E6E6E6"/>
<path d="M47.8466 56.1381C47.8229 56.172 47.7981 56.2059 47.7728 56.2392H45.6392C45.6553 56.2104 45.6741 56.1765 45.6958 56.1381C46.0483 55.5019 47.0916 53.5999 48.06 51.6281C49.1008 49.5092 50.0556 47.3098 49.9752 46.5138C50 46.6933 50.7201 52.1662 47.8466 56.1381Z" fill="#E6E6E6"/>
<path d="M15.5405 6.53613L16.8669 5.47531C15.8365 5.36163 15.4131 5.92357 15.2399 6.36836C14.4349 6.0341 13.5586 6.47216 13.5586 6.47216L16.2124 7.43558C16.0785 7.07799 15.8454 6.76598 15.5405 6.53613Z" fill="#3F3D56"/>
<path d="M55.489 1.07568L56.8154 0.0148564C55.785 -0.0988226 55.3616 0.463124 55.1884 0.90791C54.3834 0.573654 53.5071 1.01171 53.5071 1.01171L56.1609 1.97513C56.027 1.61754 55.7939 1.30553 55.489 1.07568Z" fill="#3F3D56"/>
<path d="M75.0037 43.0262C75.0037 43.9052 74.9731 44.777 74.9118 45.6416C74.4394 52.4629 72.0742 59.0174 68.0819 64.5685C67.5602 65.2967 67.0124 66.0044 66.4385 66.6917C64.9515 68.4751 63.3005 70.1151 61.5072 71.5901L53.6463 66.9775L48.9463 56.0078C48.9463 56.0078 55.9588 41.8092 74.9912 42.0667C74.9992 42.3854 75.0033 42.7052 75.0037 43.0262Z" fill="#3F3D56"/>
<path d="M74.912 45.6417C74.5504 50.739 73.1361 55.7061 70.7585 60.2295C68.3808 64.7528 65.0915 68.7343 61.0979 71.9225L53.795 67.6377L49.627 57.9088C49.627 57.9088 56.3809 44.2342 74.912 45.6417Z" fill="#00635D"/>
<path d="M68.0821 64.5686C67.5604 65.2967 67.0126 66.0044 66.4387 66.6917C62.5932 71.312 57.6796 74.9254 52.1233 77.2191C50.9982 77.6829 49.8466 78.092 48.6686 78.4462C40.1625 80.7083 31.1508 80.1361 22.999 76.8164C14.937 73.2181 8.42212 66.8632 4.62444 58.8932C4.11406 57.8203 3.6551 56.7202 3.24756 55.5928C10.3554 50.3858 24.3612 42.9298 39.6259 50.1749C43.8484 52.179 47.6187 54.0057 50.9369 55.6552C59.357 59.8289 64.9609 62.8378 68.0821 64.5686Z" fill="#3F3D56"/>
<path d="M66.4385 66.6918C62.4634 71.4558 57.3541 75.1436 51.5805 77.416C45.807 79.6884 39.5547 80.4724 33.3989 79.6957C27.243 78.9191 21.3814 76.6069 16.3531 72.9717C11.3249 69.3366 7.29158 64.4953 4.62427 58.8932C10.5605 54.1989 24.2521 45.763 39.2775 52.8935C43.1416 54.7274 46.5914 56.3992 49.6268 57.9088C58.4756 62.2946 63.9263 65.2752 66.4385 66.6918Z" fill="#00635D"/>
<path d="M55.9612 75.3692C54.7181 76.0584 53.4367 76.676 52.1232 77.2191C47.6533 79.0611 42.8647 80.006 38.0301 80C32.3093 79.9978 26.667 78.6693 21.5461 76.1189C16.4253 73.5686 11.9655 69.8657 8.51685 65.3013C17.3475 64.3701 41.7569 63.1146 55.9612 75.3692Z" fill="#3F3D56"/>
<path d="M52.1232 77.219C45.1919 80.069 37.5588 80.7479 30.2334 79.1659C22.908 77.5838 16.2354 73.8154 11.0981 68.3589C14.3101 67.8871 39.5271 64.6468 52.1232 77.219Z" fill="#00635D"/>
<path d="M68.8021 22.5228V22.5239C42.401 3.00382 12.1528 16.7431 11.9192 16.8486V16.8474C15.3477 13.4194 19.4187 10.7013 23.8992 8.84895C28.3797 6.99657 33.1816 6.04627 38.0299 6.05246C50.8653 6.05246 62.1729 12.5932 68.8021 22.5228Z" fill="#E6E6E6"/>
<path d="M14.0367 43.743C18.5029 42.9377 20.7916 34.8975 19.1485 25.7846C17.5055 16.6718 12.553 9.93711 8.08678 10.7424C3.62058 11.5476 1.33194 19.5878 2.97496 28.7007C4.61799 37.8136 9.5705 44.5482 14.0367 43.743Z" fill="#3F3D56"/>
<path d="M15.1845 54.3856C14.9197 34.3693 8.22255 15.5851 8.15496 15.3979L7.54419 15.6182C7.61145 15.8045 14.2719 34.4903 14.5353 54.3944L15.1845 54.3856Z" fill="#00635D"/>
<path d="M3.30237 24.9783L3.10254 25.5962L11.1204 28.1891L11.3202 27.5713L3.30237 24.9783Z" fill="#00635D"/>
<path d="M18.3847 24.2822L11.7786 29.5142L12.1817 30.0232L18.7879 24.7913L18.3847 24.2822Z" fill="#00635D"/>
<path d="M35.5121 40.8573C40.4229 40.8573 44.4038 32.7345 44.4038 22.7145C44.4038 12.6946 40.4229 4.57178 35.5121 4.57178C30.6013 4.57178 26.6204 12.6946 26.6204 22.7145C26.6204 32.7345 30.6013 40.8573 35.5121 40.8573Z" fill="#3F3D56"/>
<path d="M34.6909 52.4112C38.2521 31.0445 34.7267 9.75498 34.6907 9.5426L33.998 9.65994C34.0338 9.8713 37.539 31.049 33.9978 52.2959L34.6909 52.4112Z" fill="#00635D"/>
<path d="M27.6837 18.8133L27.3523 19.4329L35.3928 23.7337L35.7243 23.114L27.6837 18.8133Z" fill="#00635D"/>
<path d="M43.8787 20.9677L35.8391 25.2709L36.1707 25.8904L44.2103 21.5872L43.8787 20.9677Z" fill="#00635D"/>
<path d="M74.1351 35.0213C70.8726 33.1897 67.4642 31.6313 63.9446 30.3621C44.4834 23.3201 25.1856 26.0342 17.6321 36.1124C23.5105 23.7658 44.4857 19.8836 65.6526 27.5426C68.1162 28.4332 70.5272 29.4632 72.8739 30.6275C73.3851 32.0645 73.8064 33.5319 74.1351 35.0213Z" fill="#E6E6E6"/>
<path d="M47.8516 15.1533L49.1779 14.0925C48.1475 13.9788 47.7242 14.5408 47.5509 14.9855C46.7459 14.6513 45.8696 15.0894 45.8696 15.0894L48.5234 16.0528C48.3895 15.6952 48.1565 15.3832 47.8516 15.1533Z" fill="#3F3D56"/>
</svg>
